<svg xmlns="http://www.w3.org/2000/svg" preserveAspectRatio="xMidYMid" viewBox="0 0 256 256"><path fill="#1793d1" d="M127.98 0c-11.396 27.936-18.27 46.209-30.959 73.315 7.78 8.245 17.329 17.846 32.837 28.69-16.672-6.86-28.045-13.746-36.544-20.892-16.239 33.879-41.68 82.137-93.31 174.89 40.579-23.422 72.035-37.863 101.35-43.373a74.3 74.3 0 0 1-1.926-17.378l.048-1.3c.644-25.993 14.168-45.98 30.188-44.624 16.021 1.358 28.473 23.541 27.83 49.534-.122 4.891-.674 9.597-1.638 13.96 28.997 5.672 60.117 20.075 100.15 43.18-7.893-14.529-14.938-27.626-21.666-40.099-10.598-8.212-21.652-18.9-44.199-30.472 15.498 4.027 26.594 8.672 35.244 13.864C156.98 71.965 151.44 55.045 127.983.005z"/></svg>