<svg xmlns="http://www.w3.org/2000/svg" xmlns:xlink="http://www.w3.org/1999/xlink" width="535.14" height="464.16" viewBox="0 0 501.7 435.14"><defs><linearGradient id="a" x1="200.6" x2="290.09" y1="351.41" y2="506.19" gradientTransform="translate(70.65 -1055.2)" gradientUnits="userSpaceOnUse"><stop offset="0" stop-color="#699ad7"/><stop offset=".243" stop-color="#7eb1dd"/><stop offset="1" stop-color="#7ebae4"/></linearGradient><linearGradient id="c" x1="-584.2" x2="-496.3" y1="782.34" y2="937.71" gradientTransform="translate(864.7 -1491.3)" gradientUnits="userSpaceOnUse"><stop offset="0" stop-color="#415e9a"/><stop offset=".232" stop-color="#4a6baf"/><stop offset="1" stop-color="#5277c3"/></linearGradient></defs><g fill-rule="evenodd"><path fill="#5277c3" d="m309.4-710.25 122.2 211.68-56.157.527-32.624-56.87-32.856 56.566-27.902-.011-14.291-24.69 46.81-80.49-33.229-57.826z" style="isolation:auto;mix-blend-mode:normal" transform="translate(-156.34 933.19)"/><path fill="#7ebae4" d="M353.51-797.44 231.29-585.78l-28.535-48.37 32.938-56.688-65.415-.172-13.941-24.17 14.236-24.72 93.112.293 33.464-57.69zm9.38 169.2 244.41.012-27.622 48.897-65.562-.182 32.559 56.737-13.961 24.158-28.527.032-46.301-80.784-66.693-.135zm142.25-92.75-122.2-211.68 56.157-.527 32.624 56.87 32.856-56.566 27.902.011 14.291 24.69-46.81 80.49 33.229 57.826z" style="isolation:auto;mix-blend-mode:normal" transform="translate(-156.34 933.19)"/><path fill="#5277c3" d="m309.4-710.25 122.2 211.68-56.157.527-32.624-56.87-32.856 56.566-27.902-.011-14.291-24.69 46.81-80.49-33.229-57.826zm141.94-93.28-244.41-.012 27.622-48.897 65.562.182-32.559-56.737 13.961-24.16 28.527-.03 46.301 80.783 66.693.135zm9.53 169.69L583.09-845.5l28.535 48.37-32.938 56.688 65.415.172 13.941 24.17-14.236 24.72-93.112-.293-33.464 57.69z" style="isolation:auto;mix-blend-mode:normal" transform="translate(-156.34 933.19)"/></g><g transform="translate(-156.34 933.19)"><path id="b" fill="url(#a)" fill-rule="evenodd" d="m309.55-710.39 122.2 211.68-56.157.527-32.624-56.87-32.856 56.566-27.902-.011-14.291-24.69 46.81-80.49-33.229-57.826z"/><use xlink:href="#b" width="100%" height="100%" transform="rotate(60 407.11 -715.79)"/><use xlink:href="#b" width="100%" height="100%" transform="rotate(-60 407.31 -715.7)"/><use xlink:href="#b" width="100%" height="100%" transform="rotate(180 407.42 -715.76)"/><path id="d" fill="url(#c)" fill-rule="evenodd" d="m309.55-710.39 122.2 211.68-56.157.527-32.624-56.87-32.856 56.566-27.902-.011-14.291-24.69 46.81-80.49-33.229-57.826z" color-rendering="auto" image-rendering="auto" shape-rendering="auto" style="isolation:auto;mix-blend-mode:normal"/><use xlink:href="#d" width="100%" height="100%" transform="rotate(120 407.34 -716.08)"/><use xlink:href="#d" width="100%" height="100%" transform="rotate(240 407.29 -715.87)"/></g></svg>